<svg width="480" height="70" xmlns="http://www.w3.org/2000/svg" preserveAspectRatio="xMidYMid">
 <defs>
  <linearGradient gradientUnits="objectBoundingBox" y2="0.5" y1="0.5" x2="1" x1="0" id="editing-gradient-gradient">
   <stop stop-color="#51b3e6" offset="0"/>
   <stop stop-color="#e64dde" offset="1"/>
  </linearGradient>
 </defs>
 <g>
  <title>Layer 1</title>
  <g id="svg_1">
   <g id="svg_2">
    <path id="svg_3" fill="url(#editing-gradient-gradient)" d="m20.22997,51.61l-13.96,0l8.13,-42.24l14.08,0l-8.25,42.24zm55.74,1.28l0,0l0,0q-7.74,0 -7.74,-6.02l0,0l0,0q0,-2.62 1.12,-7.71l0,0l0,0q1.12,-5.09 1.5,-7.13l0,0l0,0q0.9,-4.68 0.9,-6.15l0,0l0,0q0,-3.26 -2.44,-3.26l0,0l0,0q-1.6,0 -3.13,2.21l0,0l0,0q-1.54,2.2 -2.24,6.62l0,0l-3.97,20.16l-12.48,1.28l3.46,-17.41l0,0q0.57,-2.88 1.08,-6.14l0,0l0,0q0.52,-3.27 0.52,-3.78l0,0l0,0q0,-2.94 -2.18,-2.94l0,0l0,0q-1.47,0 -3.07,2.17l0,0l0,0q-1.6,2.18 -2.5,6.66l0,0l-3.9,20.16l-12.61,1.28l6.72,-33.92l10.43,-1.28l-1.09,6.46l0,0q1.67,-3.45 4.74,-4.96l0,0l0,0q3.07,-1.5 7.87,-1.5l0,0l0,0q2.75,0 4.55,1.34l0,0l0,0q1.79,1.35 2.36,3.52l0,0l0,0q1.09,-2.24 3.88,-3.55l0,0l0,0q2.78,-1.31 6.2,-1.31l0,0l0,0q3.43,0 5.12,0.74l0,0l0,0q1.7,0.73 2.72,1.95l0,0l0,0q1.73,2.24 1.73,6.33l0,0l0,0q0,4.04 -1.73,12.42l0,0l0,0q-0.89,4.1 -0.89,5.6l0,0l0,0q0,1.5 0.86,2.4l0,0l0,0q0.87,0.9 2.15,1.02l0,0l0,0q-0.64,2.18 -2.85,3.46l0,0l0,0q-2.21,1.28 -5.09,1.28zm15.65,-3.2l0,0l0,0q-1.51,-1.66 -2.18,-4.29l0,0l0,0q-0.67,-2.62 -0.67,-6.91l0,0l0,0q0,-4.29 1.47,-8.19l0,0l0,0q1.47,-3.91 4.16,-6.72l0,0l0,0q5.51,-5.89 14.59,-5.89l0,0l0,0q3.27,0 5.64,1.09l0,0l10.94,-1.09l-4.74,24.96l0,0q-0.19,0.77 -0.19,2.18l0,0l0,0q0,1.4 0.87,2.3l0,0l0,0q0.86,0.9 2.14,1.02l0,0l0,0q-0.64,2.18 -2.98,3.46l0,0l0,0q-2.33,1.28 -4.96,1.28l0,0l0,0q-2.62,0 -4.38,-0.99l0,0l0,0q-1.76,-0.99 -2.27,-2.66l0,0l0,0q-1.03,1.6 -3.2,2.63l0,0l0,0q-2.18,1.02 -5.09,1.02l0,0l0,0q-2.91,0 -5.28,-0.77l0,0l0,0q-2.37,-0.77 -3.87,-2.43zm13.5,-25.98l0,0l0,0q-0.73,1.15 -1.37,3.1l0,0l0,0q-0.64,1.95 -1.7,7.17l0,0l0,0q-1.06,5.21 -1.06,8.93l0,0l0,0q0,3.71 0.58,4.8l0,0l0,0q0.58,1.08 1.6,1.08l0,0l0,0q2.05,0 3.55,-1.95l0,0l0,0q1.51,-1.95 2.08,-5.41l0,0l3.39,-18.75l0,0q-1.34,-1.15 -2.91,-1.15l0,0l0,0q-1.57,0 -2.49,0.51l0,0l0,0q-0.93,0.51 -1.67,1.67zm28.19,1.15l0,0l0,0q2.18,-3.07 5.48,-5.12l0,0l0,0q3.29,-2.05 7.32,-2.05l0,0l0,0q4.04,0 5.96,1.28l0,0l12.54,-1.28l-4.35,24.58l0,0q-2.24,12.54 -6.98,17.47l0,0l0,0q-4.54,4.67 -13.37,4.67l0,0l0,0q-6.72,0 -10.56,-2.11l0,0l0,0q-3.84,-2.11 -3.84,-5.63l0,0l0,0q0,-2.63 1.98,-4.13l0,0l0,0q1.98,-1.51 5.06,-1.51l0,0l0,0q2.68,0 4.73,1.22l0,0l0,0q1.22,0.64 1.79,1.54l0,0l0,0q-1.47,1.28 -1.47,3.39l0,0l0,0q0,2.75 2.56,2.75l0,0l0,0q4.29,0 6.72,-10.11l0,0l0,0q0.71,-2.75 1.28,-5.51l0,0l0,0q-2.88,3.52 -9.41,3.52l0,0l0,0q-4.54,0 -7.16,-2.17l0,0l0,0q-2.63,-2.18 -2.63,-7.3l0,0l0,0q0,-3.2 1.09,-6.81l0,0l0,0q1.09,-3.62 3.26,-6.69zm8.32,13.69l0,0l0,0q0,4.36 2.24,4.36l0,0l0,0q1.54,0 3.01,-1.67l0,0l0,0q1.15,-1.34 1.6,-3.33l0,0l3.27,-16.44l0,0q-0.32,-0.07 -0.64,-0.2l0,0l0,0q-0.64,-0.25 -1.48,-0.25l0,0l0,0q-3.9,0 -6.2,6.4l0,0l0,0q-1.8,4.99 -1.8,11.13zm51.4,2.24l0,0l0,0q1.6,1.09 1.6,3.49l0,0l0,0q0,2.4 -1.22,3.94l0,0l0,0q-1.22,1.53 -3.2,2.56l0,0l0,0q-4.1,2.11 -8.51,2.11l0,0l0,0q-4.42,0 -7.01,-0.96l0,0l0,0q-2.59,-0.96 -4.32,-2.75l0,0l0,0q-3.39,-3.39 -3.39,-9.6l0,0l0,0q0,-9.67 5.25,-15.55l0,0l0,0q5.63,-6.34 15.42,-6.34l0,0l0,0q6.08,0 9.09,2.56l0,0l0,0q2.24,1.92 2.24,5.06l0,0l0,0q0,11.26 -19.46,11.26l0,0l0,0q-0.25,1.66 -0.25,3.07l0,0l0,0q0,2.95 1.31,4.07l0,0l0,0q1.31,1.12 3.74,1.12l0,0l0,0q2.43,0 5.03,-1.12l0,0l0,0q2.59,-1.12 3.68,-2.92zm-13.06,-6.97l0,0l0,0q4.54,0 7.17,-2.82l0,0l0,0q2.62,-2.69 2.62,-6.97l0,0l0,0q0,-1.48 -0.54,-2.28l0,0l0,0q-0.55,-0.8 -1.63,-0.8l0,0l0,0q-1.09,0 -2.02,0.42l0,0l0,0q-0.93,0.42 -1.89,1.82l0,0l0,0q-2.37,3.2 -3.71,10.63zm40.32,-4.67l0,0l0,0q0.9,-2.37 0.9,-4.42l0,0l0,0q0,-3.78 -3.08,-3.78l0,0l0,0q-1.6,0 -2.91,1.44l0,0l0,0q-1.31,1.44 -1.31,3.24l0,0l0,0q0,1.28 1.02,2.3l0,0l0,0q1.48,1.41 5.25,3.71l0,0l0,0q3.78,2.31 5.22,4.19l0,0l0,0q1.44,1.89 1.44,4.48l0,0l0,0q0,2.6 -1.25,4.96l0,0l0,0q-1.25,2.37 -3.49,4.04l0,0l0,0q-4.8,3.58 -12.48,3.58l0,0l0,0q-4.16,0 -7.36,-2.18l0,0l0,0q-3.2,-2.11 -3.2,-4.6l0,0l0,0q0,-2.5 1.83,-3.97l0,0l0,0q1.82,-1.47 4.51,-1.47l0,0l0,0q2.69,0 4.35,1.02l0,0l0,0q-0.83,2.11 -0.83,3.52l0,0l0,0q0,4.22 3.58,4.22l0,0l0,0q1.54,0 2.56,-0.96l0,0l0,0q1.03,-0.96 1.03,-2.62l0,0l0,0q0,-3.26 -5.51,-6.72l0,0l0,0q-4.48,-2.94 -5.5,-4.1l0,0l0,0q-1.73,-2.04 -1.73,-4.6l0,0l0,0q0,-2.56 1.22,-5l0,0l0,0q1.21,-2.43 3.45,-4.16l0,0l0,0q4.67,-3.58 12.8,-3.58l0,0l0,0q4.16,0 6.63,1.66l0,0l0,0q2.46,1.67 2.46,4.48l0,0l0,0q0,2.82 -1.7,4.42l0,0l0,0q-1.69,1.6 -4.76,1.6l0,0l0,0q-2.12,0 -3.14,-0.7zm51.07,1.85l12.93,-1.15l0,0q-4.61,10.11 -4.61,21.82l0,0l0,0q-1.73,1.22 -4.25,1.22l0,0l0,0q-2.53,0 -4.13,-1.18l0,0l0,0q-1.6,-1.19 -1.92,-2.4l0,0l0,0q-1.6,1.66 -4.19,2.62l0,0l0,0q-2.6,0.96 -5.35,0.96l0,0l0,0q-2.75,0 -5.15,-0.9l0,0l0,0q-2.4,-0.89 -4.26,-2.88l0,0l0,0q-4.09,-4.35 -4.09,-12.6l0,0l0,0q0,-12.8 6.85,-20.48l0,0l0,0q7.04,-7.94 19.52,-7.94l0,0l0,0q8.64,0 11.71,4.48l0,0l0,0q0.96,1.41 0.96,3.1l0,0l0,0q0,1.7 -0.74,3.14l0,0l0,0q-0.73,1.44 -1.89,2.59l0,0l0,0q-2.75,2.56 -6.14,2.56l0,0l0,0q-1.34,0 -2.62,-0.45l0,0l0,0q0.25,-1.92 0.25,-4.16l0,0l0,0q0,-2.24 -0.16,-3.26l0,0l0,0q-0.16,-1.02 -0.54,-1.86l0,0l0,0q-0.83,-1.72 -2.66,-1.72l0,0l0,0q-1.82,0 -3.84,1.95l0,0l0,0q-2.01,1.95 -3.61,5.15l0,0l0,0q-3.52,7.17 -3.52,15.81l0,0l0,0q0,3.97 1.53,6.78l0,0l0,0q1.67,3.07 4.61,3.07l0,0l0,0q1.02,0 1.95,-0.51l0,0l0,0q0.93,-0.51 1.31,-0.89l0,0l2.05,-12.87zm18.85,18.69l0,0l0,0q-1.5,-1.66 -2.18,-4.29l0,0l0,0q-0.67,-2.62 -0.67,-6.91l0,0l0,0q0,-4.29 1.47,-8.19l0,0l0,0q1.48,-3.91 4.16,-6.72l0,0l0,0q5.51,-5.89 14.6,-5.89l0,0l0,0q3.26,0 5.63,1.09l0,0l10.94,-1.09l-4.73,24.96l0,0q-0.2,0.77 -0.2,2.18l0,0l0,0q0,1.4 0.87,2.3l0,0l0,0q0.86,0.9 2.14,1.02l0,0l0,0q-0.64,2.18 -2.97,3.46l0,0l0,0q-2.34,1.28 -4.96,1.28l0,0l0,0q-2.63,0 -4.39,-0.99l0,0l0,0q-1.76,-0.99 -2.27,-2.66l0,0l0,0q-1.02,1.6 -3.2,2.63l0,0l0,0q-2.18,1.02 -5.09,1.02l0,0l0,0q-2.91,0 -5.28,-0.77l0,0l0,0q-2.37,-0.77 -3.87,-2.43zm13.5,-25.98l0,0l0,0q-0.73,1.15 -1.37,3.1l0,0l0,0q-0.64,1.95 -1.7,7.17l0,0l0,0q-1.05,5.21 -1.05,8.93l0,0l0,0q0,3.71 0.57,4.8l0,0l0,0q0.58,1.08 1.6,1.08l0,0l0,0q2.05,0 3.55,-1.95l0,0l0,0q1.51,-1.95 2.08,-5.41l0,0l3.4,-18.75l0,0q-1.35,-1.15 -2.92,-1.15l0,0l0,0q-1.56,0 -2.49,0.51l0,0l0,0q-0.93,0.51 -1.67,1.67zm39.2,24.38l0,0l0,0q-1.98,4.8 -8.32,4.8l0,0l0,0q-3.2,0 -5.24,-2.24l0,0l0,0q-1.67,-1.86 -1.67,-3.97l0,0l0,0q0,-4.8 2.24,-15.29l0,0l4.67,-24.58l13,-1.28l-6.21,32.38l0,0q-1.09,4.74 -1.09,6.4l0,0l0,0q0,3.65 2.62,3.78zm20.74,0l0,0l0,0q-1.98,4.8 -8.32,4.8l0,0l0,0q-3.2,0 -5.25,-2.24l0,0l0,0q-1.66,-1.86 -1.66,-3.97l0,0l0,0q0,-4.8 2.24,-15.29l0,0l4.67,-24.58l12.99,-1.28l-6.21,32.38l0,0q-1.08,4.74 -1.08,6.4l0,0l0,0q0,3.65 2.62,3.78zm31.36,-7.3l0,0l0,0q1.6,1.09 1.6,3.49l0,0l0,0q0,2.4 -1.22,3.94l0,0l0,0q-1.21,1.53 -3.2,2.56l0,0l0,0q-4.09,2.11 -8.51,2.11l0,0l0,0q-4.41,0 -7.01,-0.96l0,0l0,0q-2.59,-0.96 -4.32,-2.75l0,0l0,0q-3.39,-3.39 -3.39,-9.6l0,0l0,0q0,-9.67 5.25,-15.55l0,0l0,0q5.63,-6.34 15.42,-6.34l0,0l0,0q6.08,0 9.09,2.56l0,0l0,0q2.24,1.92 2.24,5.06l0,0l0,0q0,11.26 -19.45,11.26l0,0l0,0q-0.26,1.66 -0.26,3.07l0,0l0,0q0,2.95 1.31,4.07l0,0l0,0q1.31,1.12 3.75,1.12l0,0l0,0q2.43,0 5.02,-1.12l0,0l0,0q2.59,-1.12 3.68,-2.92zm-13.06,-6.97l0,0l0,0q4.55,0 7.17,-2.82l0,0l0,0q2.63,-2.69 2.63,-6.97l0,0l0,0q0,-1.48 -0.55,-2.28l0,0l0,0q-0.54,-0.8 -1.63,-0.8l0,0l0,0q-1.09,0 -2.02,0.42l0,0l0,0q-0.92,0.42 -1.88,1.82l0,0l0,0q-2.37,3.2 -3.72,10.63zm41.22,-0.19l0,0l0,0q2.3,-4.1 2.3,-8.26l0,0l0,0q0,-2.75 -1.98,-2.75l0,0l0,0q-1.54,0 -3.14,2.62l0,0l0,0q-1.66,2.63 -2.17,6.02l0,0l-3.33,20.35l-13.25,1.28l6.53,-33.92l10.56,-1.28l-1.15,6.46l0,0q3.13,-6.46 10.17,-6.46l0,0l0,0q3.72,0 5.73,1.92l0,0l0,0q2.02,1.92 2.02,5.86l0,0l0,0q0,3.93 -2.59,6.43l0,0l0,0q-2.6,2.49 -7.01,2.49l0,0l0,0q-1.92,0 -2.69,-0.76zm33.66,10.75l0,0l0,0q-3.32,3.45 -9.4,3.45l0,0l0,0q-7.62,0 -9.22,-5.56l0,0l0,0q-0.51,-1.67 -0.51,-3.52l0,0l0,0q0,-1.86 0.38,-3.78l0,0l3.01,-16l12.99,-1.28l-3.52,18.62l0,0q-0.13,0.84 -0.32,1.73l0,0l0,0q-0.19,0.9 -0.19,1.83l0,0l0,0q0,0.92 0.32,1.53l0,0l0,0q0.32,0.61 0.77,0.99l0,0l0,0q0.77,0.52 2.14,0.52l0,0l0,0q1.38,0 2.56,-1.67l0,0l0,0q1.19,-1.66 1.76,-4.54l0,0l3.52,-17.73l12.61,-1.28l-4.8,25.15l0,0q-2.37,12.29 -7.23,17.15l0,0l0,0q-2.5,2.5 -5.73,3.49l0,0l0,0q-3.23,0.99 -7.39,0.99l0,0l0,0q-6.72,0 -10.56,-2.11l0,0l0,0q-3.84,-2.11 -3.84,-5.63l0,0l0,0q0,-2.62 1.98,-4.13l0,0l0,0q1.99,-1.5 5.06,-1.5l0,0l0,0q2.69,0 4.73,1.15l0,0l0,0q1.22,0.7 1.8,1.6l0,0l0,0q-1.48,1.28 -1.48,3.39l0,0l0,0q0,2.82 2.56,2.82l0,0l0,0q4.23,0 6.66,-9.73l0,0l0,0q0.7,-2.88 1.34,-5.95z"/>
   </g>
  </g>
 </g>
</svg>